<svg class="svg-icon" style="width: 1em;height: 1em;vertical-align: middle;fill: currentColor;overflow: hidden;" viewBox="0 0 1024 1024" version="1.1" xmlns="http://www.w3.org/2000/svg"><path d="M515.2768 53.7088a457.8816 457.8816 0 1 0 0 915.7632 457.8816 457.8816 0 0 0 0-915.7632z m0 877.4144c-231.2192 0-419.4304-188.3136-419.4304-419.4816 0-231.2704 188.2112-419.4816 419.4304-419.4816s419.4304 188.2112 419.4304 419.4816c0 231.168-188.2112 419.4816-419.4304 419.4816z" fill="#00A0E9" /><path d="M511.3856 563.968a13.4144 13.4144 0 0 1 0.8704-1.6896 193.3824 193.3824 0 0 1-54.1696-76.4928l-2.048-0.3072 0.256 0.7168c-8.6528 2.3552-17.92 4.6592-27.5968 6.5536-33.0752 6.4-66.048-0.6656-97.792-7.4752-39.3216-8.3968-76.544-16.384-106.3936 4.7104a111.7184 111.7184 0 0 0-29.3888 149.0432c16.1792 26.7776 43.2128 45.2608 76.032 52.0704 9.1648 1.8944 18.3296 2.816 27.7504 2.816 34.304 0 70.4-12.4416 103.936-36.1984 36.1984-25.6 75.2128-61.9008 107.6736-94.3104a5.12 5.12 0 0 0 0.8704 0.5632z" fill="#00A0E9" /><path d="M570.6752 516.5056l-1.6896-0.9216a194.56 194.56 0 0 1-76.544 54.2208l-0.2048 1.9968 0.7168-0.2048c2.3552 8.704 4.7104 17.8688 6.5024 27.5456 6.4 33.0752-0.7168 65.8944-7.424 97.8432-8.5504 39.3216-16.4864 76.4416 4.608 106.3936a111.7184 111.7184 0 0 0 148.992 29.3376c26.7776-16.2816 45.4144-43.3152 52.224-76.1344 1.792-9.0112 2.8672-18.2272 2.8672-27.6992 0-34.3552-12.4928-70.3488-36.4032-103.936-25.5488-36.0448-61.7984-75.2128-94.208-107.6224l0.5632-0.8192z" fill="#00A0E9" /><path d="M519.168 449.6384l-0.8192 1.6896c23.7568 20.48 42.496 46.6432 54.1184 76.4928a14.848 14.848 0 0 1 2.0992 0.3072l-0.2048-0.768c8.704-2.4064 17.92-4.608 27.5456-6.5024 33.0752-6.3488 65.8944 0.6144 97.7408 7.4752 39.424 8.448 76.4928 16.4352 106.4448-4.7616a111.5136 111.5136 0 0 0 29.3376-148.9408c-16.1792-26.8288-43.3152-45.312-76.032-52.1728a135.1168 135.1168 0 0 0-27.648-2.816c-34.4064 0-70.5536 12.4416-104.0896 36.2496-36.1472 25.6-75.1616 61.9008-107.52 94.3104l-0.9728-0.5632z" fill="#00A0E9" /><path d="M475.4944 506.6752c0.512 0.3072 1.1264 0.512 1.6896 0.8192 20.5312-23.7056 46.6432-42.496 76.544-54.1696 0-0.6656 0.1536-1.3312 0.2048-2.048l-0.7168 0.2048a359.6288 359.6288 0 0 1-6.5024-27.5968c-6.4-33.024 0.7168-65.9456 7.424-97.792 8.4992-39.3728 16.4864-76.4928-4.608-106.3936a111.6672 111.6672 0 0 0-148.9408-29.3888c-26.8288 16.2816-45.3632 43.3152-52.1728 76.1856a138.6496 138.6496 0 0 0-2.816 27.7504c0 34.304 12.3904 70.4 36.2496 103.936 25.7024 36.096 61.9008 75.2128 94.3104 107.6224-0.3072 0.256-0.4608 0.5632-0.6656 0.8704z" fill="#00A0E9" /><path d="M449.536 439.7056h122.1632v122.112H449.536z" fill="#00A0E9" /></svg>